<svg xmlns="http://www.w3.org/2000/svg" viewBox="0 0 258.32 79.52"><defs><style>.cls-1{fill:#3e4154;}.cls-2{fill:#4793ff;}</style></defs><title>Logo.svg</title><g id="Layer_2" data-name="Layer 2"><g id="Layer_1-2" data-name="Layer 1"><g id="Layer_2-2" data-name="Layer 2"><g id="Layer_1-2-2" data-name="Layer 1-2"><path class="cls-1" d="M2.26,55.61a1.89,1.89,0,0,1-.53-1.35V1.9A1.9,1.9,0,0,1,2.26.51,1.81,1.81,0,0,1,3.55,0h6.3a1.82,1.82,0,0,1,1.3.55,1.89,1.89,0,0,1,.53,1.35V29l12.6-12.58a8.06,8.06,0,0,0,.72-.59,2.76,2.76,0,0,1,.95-.59A3.68,3.68,0,0,1,27.09,15h7.22a1.61,1.61,0,0,1,1.21.47,1.74,1.74,0,0,1,.48,1.3,2,2,0,0,1-.76,1.42L19.73,33.46,37.12,53.08a2,2,0,0,1,.68,1.34,1.74,1.74,0,0,1-.46,1.27,1.5,1.5,0,0,1-1.13.47H28.84a3.35,3.35,0,0,1-1.56-.27A5.69,5.69,0,0,1,26,54.82L11.68,38.92V54.26a1.89,1.89,0,0,1-.53,1.35,1.74,1.74,0,0,1-1.3.55H3.55A1.7,1.7,0,0,1,2.26,55.61Z"/><path class="cls-1" d="M45.47,52.21q-4.86-4.76-5.24-13.13l-.08-3.48.08-3.48q.38-8.31,5.32-13.1t13.74-4.78Q68,14.24,73,19t5.32,13.1c0,.63.07,1.79.07,3.48s0,2.84-.07,3.48Q77.89,47.48,73,52.21T59.29,57Q50.34,57,45.47,52.21Zm20-5.86c1.44-1.74,2.21-4.29,2.32-7.67,0-.52.07-1.55.07-3.08s0-2.56-.07-3.09c-.11-3.37-.89-5.94-2.36-7.71a7.57,7.57,0,0,0-6.15-2.65,7.67,7.67,0,0,0-6.23,2.65q-2.2,2.65-2.35,7.71l-.08,3.09.08,3.08c.1,3.38.88,5.93,2.35,7.67A7.7,7.7,0,0,0,59.29,49a7.6,7.6,0,0,0,6.19-2.65Z"/><path class="cls-1" d="M92.17,55.13a15.17,15.17,0,0,1-5.73-4.23,7.25,7.25,0,0,1-1.86-4.15A1.66,1.66,0,0,1,86.25,45h6.23a1.3,1.3,0,0,1,1.06.63c.25.21.82.71,1.71,1.51a9.89,9.89,0,0,0,3,1.85,10.26,10.26,0,0,0,3.76.68,9,9,0,0,0,5-1.22,4,4,0,0,0,1.9-3.52,3.71,3.71,0,0,0-.88-2.57,7.82,7.82,0,0,0-3.11-1.82,60.24,60.24,0,0,0-6.72-1.86q-6.45-1.43-9.53-4.35a10.2,10.2,0,0,1-3.07-7.75,10.8,10.8,0,0,1,1.82-6A13.22,13.22,0,0,1,92.82,16a19.28,19.28,0,0,1,8.62-1.78,21.45,21.45,0,0,1,8.88,1.7A15.46,15.46,0,0,1,116,20a7,7,0,0,1,1.93,4.2,1.67,1.67,0,0,1-.49,1.22,1.53,1.53,0,0,1-1.18.52h-5.69a1.45,1.45,0,0,1-1.29-.64c-.36-.26-.93-.75-1.71-1.46a9.83,9.83,0,0,0-2.62-1.7,8.71,8.71,0,0,0-3.49-.63,6.63,6.63,0,0,0-4.33,1.26,4.11,4.11,0,0,0-1.52,3.32,3.83,3.83,0,0,0,.72,2.38,6.64,6.64,0,0,0,2.92,1.78,44.53,44.53,0,0,0,6.61,1.7q13.67,2.76,13.67,12.42a10.83,10.83,0,0,1-4.67,9.09c-3.11,2.32-7.46,3.48-13,3.48A22.56,22.56,0,0,1,92.17,55.13Z"/><path class="cls-1" d="M130.14,51.85q-4.09-5.1-4.48-13.64l-.08-2.61.08-2.61q.3-8.39,4.44-13.57t11.81-5.18a14.33,14.33,0,0,1,11.62,5.22V1.9a1.9,1.9,0,0,1,.53-1.39A1.77,1.77,0,0,1,155.35,0H162a1.78,1.78,0,0,1,1.33.51,1.92,1.92,0,0,1,.49,1.39V54.26a2,2,0,0,1-.49,1.35,1.72,1.72,0,0,1-1.33.55h-6.15a1.7,1.7,0,0,1-1.29-.55,1.84,1.84,0,0,1-.54-1.35V51.34Q149.81,57,141.91,57,134.25,57,130.14,51.85Zm21.07-6.33a13.14,13.14,0,0,0,2.32-7.15c.05-.64.07-1.64.07-3s0-2.45-.07-3.09a11.14,11.14,0,0,0-2.36-6.72,7.66,7.66,0,0,0-6.37-2.77q-8.13,0-8.66,10.44l-.08,2.38.08,2.37q.53,10.44,8.66,10.44,4.32,0,6.41-2.9Z"/><path class="cls-1" d="M219.52,55.61a1.87,1.87,0,0,1-.53-1.35V1.9a1.84,1.84,0,0,1,.53-1.39A1.77,1.77,0,0,1,220.81,0h6.3a1.78,1.78,0,0,1,1.29.55,1.86,1.86,0,0,1,.54,1.35V29l12.6-12.58a8.06,8.06,0,0,0,.72-.59,3,3,0,0,1,1-.59,3.38,3.38,0,0,1,1.14-.16h7.22a1.61,1.61,0,0,1,1.21.47,1.8,1.8,0,0,1,.46,1.27,2,2,0,0,1-.76,1.42L237,33.46l17.39,19.62a2,2,0,0,1,.69,1.34,1.74,1.74,0,0,1-.46,1.27,1.53,1.53,0,0,1-1.14.47H246.1a3.35,3.35,0,0,1-1.56-.27,6.38,6.38,0,0,1-1.25-1.07l-14.35-15.9V54.26a1.84,1.84,0,0,1-.54,1.35,1.7,1.7,0,0,1-1.29.55h-6.3A1.7,1.7,0,0,1,219.52,55.61Z"/><rect class="cls-2" x="201.1" y="46.33" width="9.27" height="32.58" rx="4.63" ry="4.63" transform="translate(-3.74 111.26) rotate(-30)"/><path class="cls-2" d="M4.5,70.52H253.82a4.5,4.5,0,0,1,4.5,4.5h0a4.49,4.49,0,0,1-4.5,4.5H4.5A4.49,4.49,0,0,1,0,75H0A4.5,4.5,0,0,1,4.5,70.52Z"/><path class="cls-2" d="M210.41,32.12Q210,23.81,205.09,19t-13.67-4.78q-8.8,0-13.74,4.78t-5.32,13.1l-.07,3.48.07,3.48q.38,8.4,5.24,13.13T191.42,57q8.9,0,13.75-4.74t5.24-13.13c.05-.64.07-1.79.07-3.48S210.46,32.75,210.41,32.12ZM191.24,49.85c-6.58,0-11.92-6.31-11.92-14.09s5.34-14.09,11.92-14.09S203.16,28,203.16,35.76,197.82,49.85,191.24,49.85Z"/><path class="cls-2" d="M188.57,25.17a19.7,19.7,0,0,0,0,21.58S176,36.66,188.57,25.17Z"/></g></g></g></g></svg>