<?xml version="1.0" encoding="UTF-8"?>
<svg width="70px" height="70px" viewBox="0 0 70 70" version="1.1" xmlns="http://www.w3.org/2000/svg" xmlns:xlink="http://www.w3.org/1999/xlink">
    <title>hospital (1)</title>
    <g id="Design" stroke="none" stroke-width="1" fill="none" fill-rule="evenodd">
        <g id="1.Home" transform="translate(-682.000000, -779.000000)" fill-rule="nonzero">
            <g id="hospital-(1)" transform="translate(682.000000, 779.000000)">
                <path d="M68.9746094,70 L1.02539062,70 C0.459289551,70 0,69.539984 0,68.9729874 L0,67.0275476 C0,66.4600162 0.459289551,66 1.02539062,66 L68.9746094,66 C69.5407104,66 70,66.4600162 70,67.0275476 L70,68.9729874 C70,69.539984 69.5407104,70 68.9746094,70 Z" id="Path" fill="#7D7D7D"></path>
                <path d="M0,67.1763307 L0,68 L70,68 L70,67.1763307 C70,66.5269106 69.527359,66 68.9436341,66 L1.0563659,66 C0.472640957,66 0,66.5269106 0,67.1763307 Z" id="Path" fill="#525252"></path>
                <polygon id="Path" fill="#B6E5F0" points="18 18 53 18 53 66 18 66"></polygon>
                <path d="M54.9337908,14 C55.5224159,14 56,14.4971911 56,15.111236 L56,16.8887641 C56,17.502809 55.5224159,18 54.9337908,18 L16.0662092,18 C15.4775841,18 15,17.502809 15,16.8887641 L15,15.111236 C15,14.4977529 15.4775841,14 16.0662092,14 L54.9337908,14 Z" id="Path" fill="#7D7D7D"></path>
                <path d="M49,14 L49,18 L54.8719243,18 C55.4947042,18 56,17.502809 56,16.8887641 L56,15.111236 C56,14.4977529 55.4947042,14 54.8719243,14 L49,14 Z" id="Path" fill="#525252"></path>
                <path d="M18,29 L1.06273063,29 C0.47601476,29 0,28.5168538 0,27.9207864 L0,26.0786517 C0,25.4825842 0.47601476,25 1.06273063,25 L18,25 L18,29 Z" id="Path" fill="#7D7D7D"></path>
                <polygon id="Path" fill="#525252" points="14 25 17 25 17 29 14 29"></polygon>
                <polygon id="Path" fill="#525252" points="15 25 18 25 18 29 15 29"></polygon>
                <path d="M45,66 L26,66 L26,50.9558133 C26,49.3234339 27.3150538,48 28.9370968,48 L42.0629032,48 C43.6849462,48 44.9994623,49.3234339 44.9994623,50.9558133 L44.9994623,66 L45,66 Z" id="Path" fill="#5B9ED6"></path>
                <polygon id="Path" fill="#4D86B5" points="33 48 38 48 38 66 33 66"></polygon>
                <polygon id="Path" fill="#B6E5F0" points="1 29 18 29 18 66 1 66"></polygon>
                <polygon id="Path" fill="#9BC3CC" points="14 29 17 29 17 66 14 66"></polygon>
                <polygon id="Path" fill="#9BC3CC" points="15 29 18 29 18 66 15 66"></polygon>
                <polygon id="Path" fill="#B6E5F0" points="69 66 53 66 53 29 69 29"></polygon>
                <polygon id="Path" fill="#9BC3CC" points="53 29 56 29 56 66 53 66"></polygon>
                <g id="Group" transform="translate(7.000000, 25.000000)" fill="#5B9ED6">
                    <path d="M19.3502197,11.5320925 L15.8176926,11.5320925 C15.2080642,11.5320925 14.7140456,11.0366881 14.7140456,10.4260111 L14.7140456,1.23207714 C14.7140456,0.621400157 15.2080642,0.125995745 15.8176926,0.125995745 L19.3502197,0.125995745 C19.9598483,0.125995745 20.4538673,0.621400157 20.4538673,1.23207714 L20.4538673,10.4260111 C20.454402,11.0366881 19.9598483,11.5320925 19.3502197,11.5320925 Z" id="Path"></path>
                    <path d="M30.2662635,11.5320925 L26.7337365,11.5320925 C26.1241079,11.5320925 25.6300895,11.0366881 25.6300895,10.4260111 L25.6300895,1.23207714 C25.6300895,0.621400157 26.1241079,0.125995745 26.7337365,0.125995745 L30.2662635,0.125995745 C30.8758921,0.125995745 31.3699105,0.621400157 31.3699105,1.23207714 L31.3699105,10.4260111 C31.3699105,11.0366881 30.8758921,11.5320925 30.2662635,11.5320925 Z" id="Path"></path>
                    <path d="M41.1823074,11.5320925 L37.6497803,11.5320925 C37.0401517,11.5320925 36.5461332,11.0366881 36.5461332,10.4260111 L36.5461332,1.23207714 C36.5461332,0.621400157 37.0401517,0.125995745 37.6497803,0.125995745 L41.1823074,0.125995745 C41.7919358,0.125995745 42.2859544,0.621400157 42.2859544,1.23207714 L42.2859544,10.4260111 C42.2859544,11.0366881 41.7919358,11.5320925 41.1823074,11.5320925 Z" id="Path"></path>
                    <path d="M4.65651292,27.9554994 L1.12452107,27.9554994 C0.51489251,27.9554994 0.0203388606,27.4600949 0.0203388606,26.849418 L0.0203388606,17.655484 C0.0203388606,17.044807 0.51489251,16.5494026 1.12452107,16.5494026 L4.65651292,16.5494026 C5.26667668,16.5494026 5.76069527,17.044807 5.76069527,17.655484 L5.76069527,26.849418 C5.76069527,27.4606311 5.26667668,27.9554994 4.65651292,27.9554994 Z" id="Path"></path>
                    <path d="M52.3434871,27.9554994 L55.8754789,27.9554994 C56.4851075,27.9554994 56.9796611,27.4600949 56.9796611,26.849418 L56.9796611,17.655484 C56.9796611,17.044807 56.4851075,16.5494026 55.8754789,16.5494026 L52.3434871,16.5494026 C51.7333233,16.5494026 51.2393047,17.044807 51.2393047,17.655484 L51.2393047,26.849418 C51.2393047,27.4606311 51.7333233,27.9554994 52.3434871,27.9554994 Z" id="Path"></path>
                </g>
                <path d="M68.9659902,25 C69.5373617,25 70,25.497191 70,26.1112359 L70,27.888764 C70,28.5022471 69.5373617,29 68.9659902,29 L53,29 L53,25 L68.9659902,25 Z" id="Path" fill="#7D7D7D"></path>
                <polygon id="Path" fill="#525252" points="53 25 56 25 56 29 53 29"></polygon>
                <path d="M45,14 L45,2.28042673 C45,1.02083895 43.9640938,0 42.6859145,0 L27.3140855,0 C26.0359062,0 25,1.02083895 25,2.28042673 L25,14 L45,14 Z" id="Path" fill="#EF2D57"></path>
                <path d="M42,0 L42,14 L45,14 L45,2.28042673 C45,1.02083895 44.1205228,0 43.0353574,0 L42,0 Z" id="Path" fill="#D4284D"></path>
                <path d="M38.8934609,5.39346104 L36.606539,5.39346104 L36.606539,3.10653911 C36.606539,2.49508962 36.1114495,2 35.5,2 C34.8885505,2 34.393461,2.49508962 34.393461,3.10653911 L34.393461,5.39346104 L32.1065391,5.39346104 C31.4956489,5.39346104 31,5.88855051 31,6.5 C31,7.1108901 31.4956489,7.60653911 32.1065391,7.60653911 L34.393461,7.60653911 L34.393461,9.89290165 C34.393461,10.5043511 34.8885505,11 35.5,11 C36.1114495,11 36.606539,10.5043511 36.606539,9.89290165 L36.606539,7.60597972 L38.8934609,7.60597972 C39.5043511,7.60597972 40,7.1108901 40,6.49944061 C40,5.88855051 39.5043511,5.39346104 38.8934609,5.39346104 Z" id="Path" fill="#FFFFFF"></path>
            </g>
        </g>
    </g>
</svg>