<?xml version="1.0" encoding="UTF-8"?>
<svg width="50px" height="65px" viewBox="0 0 50 65" version="1.1" xmlns="http://www.w3.org/2000/svg" xmlns:xlink="http://www.w3.org/1999/xlink">
    <title>doctor</title>
    <g id="Design" stroke="none" stroke-width="1" fill="none" fill-rule="evenodd">
        <g id="1.Home" transform="translate(-934.000000, -784.000000)" fill-rule="nonzero">
            <g id="Group-10" transform="translate(852.000000, 737.000000)">
                <g id="doctor" transform="translate(82.000000, 47.000000)">
                    <path d="M45.5136016,46.3078694 L34.5349368,43 L15.4650632,43 L4.48639839,46.3078694 C1.82649784,47.109413 0,49.6100532 0,52.4502802 L0,61.798736 C0,63.5667062 1.39913771,65 3.12497635,65 L46.8750237,65 C48.6008623,65 50,63.5667062 50,61.798736 L50,52.4502802 C50,49.6100532 48.173376,47.1092838 45.5136016,46.3078694 Z" id="Path" fill="#EDEBED"></path>
                    <polygon id="Path" fill="#A5CDFF" points="30 65 20 65 18 44 32 44"></polygon>
                    <path d="M18,44 L18.2993409,46.9934005 C19.9472901,48.8344871 22.3346308,50 25,50 C27.6653692,50 30.0527099,48.8344871 31.7006591,46.9934005 L32,44 L18,44 L18,44 Z" id="Path" fill="#8CB4EB"></path>
                    <path d="M25.0000605,48 L25.0000605,48 C21.1340247,48 18,44.6421164 18,40.5000649 L18,33 L32,33 L32,40.5000649 C32,44.6421164 28.8660964,48 25.0000605,48 Z" id="Path" fill="#F7D291"></path>
                    <path d="M18,38.2309633 C20.100993,39.3531252 22.4832889,40 25,40 C27.5167111,40 29.8991281,39.3531252 32,38.2309633 L32,34 L18,34 L18,38.2309633 Z" id="Path" fill="#F0C382"></path>
                    <path d="M39.4218945,19.7406444 L38.9062734,19.7406444 L38.9062734,9 L12.0937266,9 L12.0937266,19.7407745 L11.5781055,19.7407745 C10.1601163,19.7407745 9,20.9490644 9,22.4259356 C9,23.9028067 10.1601163,25.1110967 11.5781055,25.1110967 L12.1458007,25.1110967 C12.6740345,32.3190861 18.4440206,38 25.5,38 C32.5559794,38 38.3259655,32.3190861 38.8541993,25.1110967 L39.4218945,25.1110967 C40.8398837,25.1110967 42,23.9028067 42,22.4259356 C42,20.9490644 40.8398837,19.7406444 39.4218945,19.7406444 Z" id="Path" fill="#FFE1A0"></path>
                    <g id="Group" transform="translate(18.000000, 20.000000)" fill="#6E5A64">
                        <path d="M1.02006897,2.93019231 C0.46912069,2.93019231 0.0234137931,2.5035 0.0234137931,1.97734615 L0.0234137931,1.0245 C0.0234137931,0.498346154 0.469241379,0.0716538462 1.02006897,0.0716538462 C1.57089655,0.0716538462 2.01672414,0.498346154 2.01672414,1.0245 L2.01672414,1.97734615 C2.01672414,2.50361538 1.57089655,2.93019231 1.02006897,2.93019231 Z" id="Path"></path>
                        <path d="M12.979931,2.93019231 C12.4289828,2.93019231 11.9832759,2.5035 11.9832759,1.97734615 L11.9832759,1.0245 C11.9832759,0.498346154 12.4291034,0.0716538462 12.979931,0.0716538462 C13.5308793,0.0716538462 13.9765862,0.498346154 13.9765862,1.0245 L13.9765862,1.97734615 C13.9765862,2.50361538 13.5308793,2.93019231 12.979931,2.93019231 Z" id="Path"></path>
                    </g>
                    <g id="Group" transform="translate(17.000000, 17.000000)" fill="#A06E50">
                        <path d="M3.26171642,1.95823529 L1.16640299,1.95823529 C0.587261194,1.95823529 0.118746269,1.52317647 0.118746269,0.986705882 C0.118746269,0.450235294 0.58738806,0.0151764706 1.16640299,0.0151764706 L3.26171642,0.0151764706 C3.84085821,0.0151764706 4.30937313,0.450235294 4.30937313,0.986705882 C4.30937313,1.52317647 3.84073134,1.95823529 3.26171642,1.95823529 Z" id="Path"></path>
                        <path d="M15.833597,1.95823529 L13.7382836,1.95823529 C13.1591418,1.95823529 12.6906269,1.52317647 12.6906269,0.986705882 C12.6906269,0.450235294 13.1592687,0.0151764706 13.7382836,0.0151764706 L15.833597,0.0151764706 C16.4127388,0.0151764706 16.8812537,0.450235294 16.8812537,0.986705882 C16.8812537,1.52317647 16.4127388,1.95823529 15.833597,1.95823529 Z" id="Path"></path>
                    </g>
                    <path d="M11.1414158,9 L11.1414158,19.7407263 L10.7097785,19.7407263 C9.51757678,19.7407263 8.40399295,20.5156412 8.09510088,21.6968727 C7.62808548,23.4830268 8.94658293,25.1111545 10.6178463,25.1111545 L11.1942927,25.1111545 C11.7306693,32.3191116 17.5896013,38 24.7543504,38 C25.4706604,38 26.1690913,37.9284654 26.8552223,37.8190825 C20.3307014,36.7861227 15.329972,31.0186125 15.329972,24.0370948 L15.329972,17.5100171 C15.329972,14.9884872 17.4062441,12.9358341 19.8563314,13.1428943 C20.542082,13.2009024 21.2621961,13.2318573 22.0188296,13.2318573 C25.0552539,13.2318573 28.4455853,12.7347568 32.0959897,11.7544726 C33.6909176,11.3261754 35.0627991,10.329113 36,9 L11.1414158,9 L11.1414158,9 Z" id="Path" fill="#F7D291"></path>
                    <path d="M16.8750324,5.00718687 L17,9.14310078 C17,9.14310078 14.0000519,12.2450362 14.0000519,16.3809501 L14.0000519,17.6573338 C14.0000519,18.7002022 13.2490356,19.5799228 12.2480841,19.7093892 L10,20 L10,11.2111829 C10.0001211,7.78483019 13.1250368,4.83489886 16.8750324,5.00718687 Z" id="Path" fill="#A06E50"></path>
                    <path d="M37.3940613,49.3549754 L35.3450037,47.2917192 L37.5378724,44.3476341 C38.0120231,43.7110104 37.797935,42.7975115 37.0910308,42.4415472 L32.2415402,40 L25,65 L31.2069271,65 L37.7815245,51.75969 C38.179761,50.9575719 38.0236733,49.9889502 37.3940613,49.3549754 Z" id="Path" fill="#DBD9DC"></path>
                    <path d="M44,58.5000432 L42.5,58.5000432 L42.5,57.0000173 C42.5,56.4472104 42.0526762,56 41.5,56 C40.9473238,56 40.5,56.4472104 40.5,56.9998962 L40.5,58.4999222 L39,58.4999222 C38.4472027,58.4999222 38,58.9472537 38,59.4999395 C38,60.0526252 38.4473238,60.4999568 39,60.4999568 L40.5,60.4999568 L40.5,61.9999827 C40.5,62.5527896 40.9473238,63 41.5,63 C42.0526762,63 42.5,62.5526685 42.5,61.9999827 L42.5,60.4999568 L44,60.4999568 C44.5527973,60.4999568 45,60.0526252 45,59.4999395 C45,58.9472537 44.5526762,58.5000432 44,58.5000432 Z" id="Path" fill="#A5CDFF"></path>
                    <path d="M33.1249676,2.0071464 L33,9.20423804 C33,9.20423804 35.9999481,12.2887059 35.9999481,16.4013297 L35.9999481,17.6705258 C35.9999481,18.7075216 36.7509644,19.5822883 37.7519159,19.7110257 L40,20 L40,8.17620659 C40,4.76914828 36.8750843,1.83582858 33.1249676,2.0071464 Z" id="Path" fill="#CD916E"></path>
                    <path d="M25.0000982,30 C23.4991294,30 22.1152592,29.5185312 21.29787,28.7119255 C20.9043122,28.3232145 20.9004372,27.6904996 21.2880613,27.2979135 C21.6777441,26.9043588 22.310585,26.9004838 22.7020841,27.288105 C23.0350945,27.6162691 23.8358938,28.0000152 24.9999771,28.0000152 C26.1640604,28.0000152 26.9648597,27.6162691 27.2978701,27.288105 C27.6894903,26.9003627 28.3223312,26.9043588 28.7118928,27.2979135 C29.0996381,27.6904996 29.0956419,28.3233356 28.7020842,28.7119255 C27.8849372,29.5185312 26.501067,30 25.0000982,30 Z" id="Path" fill="#E3AA75"></path>
                    <path d="M12.6060579,49.3549754 L14.6551165,47.2917192 L12.4622468,44.3476341 C11.9880958,43.7110104 12.2021841,42.7975115 12.9090886,42.4415472 L17.7585816,40 L25,65 L18.7930699,65 L12.2184693,51.75969 C11.8202326,50.9575719 11.9763203,49.9889502 12.6060579,49.3549754 Z" id="Path" fill="#DBD9DC"></path>
                    <path d="M27.6012784,0 C18.8945452,0 17.225938,2.55021637 10.5215588,4.60767907 C10.0608089,4.74903984 9.85343351,5.26322288 10.1138849,5.65564815 C11.5686718,7.84826197 16.9835577,13.5633279 32.3673738,9.68254269 C34.1687974,9.22814271 35.5540801,7.82865897 35.9192933,6.06925927 L35.9192933,6.06925927 C36.3423846,4.03091254 35.0566825,2.01216881 33.1235799,1.08924496 C31.5881681,0.356263218 29.574567,0 27.6012784,0 Z" id="Path" fill="#B67F5F"></path>
                    <path d="M14.9000133,65 L6.09998668,65 C5.49244984,65 5,64.5523129 5,64 L5,60 C5,59.4476871 5.49244984,59 6.09998668,59 L14.9000133,59 C15.5075502,59 16,59.4476871 16,60 L16,64 C16,64.5523129 15.5075502,65 14.9000133,65 Z" id="Path" fill="#A5CDFF"></path>
                    <path d="M11,60 C10.4472027,60 10,59.5526762 10,59 L10,56 C10,55.4472027 10.4473238,55 11,55 C11.5526762,55 12,55.4473238 12,56 L12,59 C12,59.5526762 11.5527973,60 11,60 Z" id="Path" fill="#FFFFFF"></path>
                    <path d="M14.9000133,63 L6.09998668,63 C5.49244984,63 5,62.5521918 5,62 L5,64 C5,64.5521918 5.49244984,65 6.09998668,65 L14.9000133,65 C15.5075502,65 16,64.5521918 16,64 L16,62 C16,62.5521918 15.5075502,63 14.9000133,63 Z" id="Path" fill="#8CB4EB"></path>
                </g>
            </g>
        </g>
    </g>
</svg>