<?xml version="1.0" encoding="UTF-8"?>
<svg width="79px" height="64px" viewBox="0 0 79 64" version="1.1" xmlns="http://www.w3.org/2000/svg" xmlns:xlink="http://www.w3.org/1999/xlink">
    <title>medication</title>
    <g id="Design" stroke="none" stroke-width="1" fill="none" fill-rule="evenodd">
        <g id="1.Home" transform="translate(-1162.000000, -784.000000)" fill-rule="nonzero">
            <g id="Group-8" transform="translate(1094.000000, 736.000000)">
                <g id="medication" transform="translate(68.000000, 48.000000)">
                    <path d="M75.0823748,43.9572283 C77.0586312,44.6755753 78.5089215,46.3751935 78.8971508,48.4302962 C79.2860554,50.4853988 78.5561841,52.5921473 76.9762592,53.9745123 L76.9452007,54 C75.8135965,52.5747084 74.0864819,51.7436797 72.2594406,51.7456919 L63,51.7456919 L63,51.7423382 L66.9633159,41 L75.0823748,43.9572283 Z" id="Path" fill="#00ACEA"></path>
                    <path d="M76.7697486,55.0908861 C78.1276823,56.7456758 78.383103,59.0007933 77.4280231,60.8982026 C76.4722966,62.7956117 74.4735477,64 72.2821016,64 L64,64 L64,53 L72.2821016,53 C74.0318959,52.998137 75.6859884,53.7689205 76.7697486,55.0908861 L76.7697486,55.0908861 Z" id="Path" fill="#23CCF9"></path>
                    <g id="Group" transform="translate(0.000000, 11.000000)" fill="#4793FF">
                        <path d="M67.9644075,30.8842296 L64.0953784,41.3442059 L64.0953784,41.3474715 L62.9076457,41.3474715 L56.0264422,38.8493814 C54.0681995,38.142079 52.6398883,36.451215 52.2819866,34.4168227 C51.9234258,32.3817775 52.6893223,30.312118 54.2903226,28.9889467 C55.8906638,27.6657753 58.0828938,27.2908986 60.0391593,28.0053849 L67.9644075,30.8842296 Z" id="Path"></path>
                        <path d="M62.9076457,41.3474715 L64.6925404,41.3474715 L64.6925404,52.8955047 L56.2525201,52.8955047 C53.0347007,52.8955047 50.4252481,50.3098999 50.4252481,47.1214881 C50.4252481,43.9324231 53.0347007,41.3474715 56.2525201,41.3474715 L62.9076457,41.3474715 Z" id="Path"></path>
                        <path d="M46.7631934,17.4605063 L46.7631934,46.6943636 C46.7526365,50.1146245 43.9566531,52.8850552 40.5048464,52.8955047 L6.25833596,52.8955047 C2.80587,52.8850552 0.00988679504,50.1146245 0,46.6943636 L0,17.4605063 C0,12.3781176 3.12356549,7.75812061 7.77035511,5.91051352 L7.77035511,0.135843849 L38.9928273,0.135843849 L38.9928273,5.91051352 C41.3063353,6.82027557 43.2810561,8.41317519 44.6487283,10.4736913 C46.0315603,12.545963 46.7664779,14.9761313 46.7631934,17.4605063 Z" id="Path"></path>
                    </g>
                    <polygon id="Path" fill="#FEDB41" points="38.4607765 12 6 12 6 0 40 0 40 12"></polygon>
                    <path d="M61.6622943,50 C61.5056706,50 61.3496997,49.9762965 61.2028648,49.9294552 L55.864608,48.2375266 C55.178727,48.0134787 54.8295867,47.3537506 55.0821422,46.7583588 C55.3340454,46.1629669 56.0943227,45.8548304 56.7847722,46.0670269 L62.1223765,47.7589557 C62.7312509,47.9513999 63.0927905,48.4943069 62.9792384,49.0462437 C62.8656862,49.5987448 62.3109774,50.0005637 61.6622943,50 L61.6622943,50 Z" id="Path" fill="#FEDB41"></path>
                    <path d="M61.5608994,62 L55.4391006,62 C54.644363,62 54,61.3283692 54,60.5 C54,59.6716308 54.644363,59 55.4391006,59 L61.5608994,59 C62.3556371,59 63,59.6716308 63,60.5 C63,61.3283692 62.3556371,62 61.5608994,62 Z" id="Path" fill="#FEDB41"></path>
                    <polygon id="Path" fill="#FFFFFF" points="37 36.61875 37 44.38125 27.5 44.38125 27.5 54 19.3333333 54 19.3333333 44.38125 10 44.38125 10 36.61875 19.3333333 36.61875 19.3333333 27 27.5 27 27.5 36.61875"></polygon>
                </g>
            </g>
        </g>
    </g>
</svg>